<svg version="1.1" id="Layer_1" xmlns="http://www.w3.org/2000/svg" xmlns:xlink="http://www.w3.org/1999/xlink" x="0px" y="0px"
	 width="100%" viewBox="0 0 544 544" enable-background="new 0 0 544 544" xml:space="preserve">
<path fill="#b45309" opacity="1.000000" stroke="none" 
	d="
M158.275604,55.196156 
	C186.336563,39.416702 215.891571,29.436457 247.559860,25.543552 
	C302.623627,18.774704 353.985657,30.203047 401.535217,57.918365 
	C462.196869,93.276360 500.437683,146.352783 520.237549,213.156586 
	C525.968750,232.493362 528.938354,252.270782 529.548523,272.566284 
	C530.990906,320.545807 521.913269,366.153992 498.428406,408.065369 
	C468.536102,461.411560 425.875854,500.677460 367.922485,522.627014 
	C333.364807,535.715576 297.838043,541.589294 261.166534,539.037476 
	C219.762436,536.156372 181.264359,523.343994 146.104538,501.189301 
	C98.616806,471.266602 64.641548,429.914551 43.908546,377.850128 
	C35.261612,356.136108 30.010965,333.438416 27.638199,310.149902 
	C23.417603,268.725159 28.516388,228.347961 43.261486,189.504272 
	C55.560596,157.104187 74.007477,128.295517 97.779160,102.912552 
	C115.476379,84.015778 135.667007,68.398827 158.275604,55.196156 
M321.070587,484.478699 
	C321.104401,487.644226 321.120544,490.810059 321.177887,493.975159 
	C321.221039,496.357574 322.292877,497.772095 324.854340,497.616638 
	C336.184418,496.929108 350.646576,492.221222 353.973206,480.001343 
	C354.604980,479.955688 355.282196,479.786041 355.921783,479.878052 
	C374.869843,482.603821 387.985443,474.040314 397.309204,458.359985 
	C403.245636,448.376312 404.261292,437.316803 403.721924,426.021118 
	C403.517853,421.747437 405.177612,420.290558 409.412659,421.192078 
	C415.246582,422.433990 421.078949,421.479126 426.703613,419.998871 
	C448.328735,414.307678 463.733246,395.112518 464.504913,372.632874 
	C464.705505,366.789459 464.253510,360.764252 460.854797,354.936798 
	C456.377075,357.510254 452.462494,360.351349 447.661011,361.364319 
	C439.911041,362.999359 432.128143,362.973175 424.299072,362.387573 
	C418.517914,361.955109 414.618774,358.414581 414.695923,353.615784 
	C414.773743,348.774689 418.706818,345.019104 424.315247,344.730408 
	C428.138550,344.533630 431.979095,344.666382 435.811951,344.663086 
	C449.467346,344.651428 463.793762,333.963318 467.289673,320.605560 
	C468.805359,314.814117 469.439117,309.030518 475.856842,306.047363 
	C478.165802,304.974091 479.310333,302.039886 480.440094,299.625031 
	C483.383606,293.333191 484.865417,286.551086 484.384247,279.741486 
	C483.917480,273.136017 483.855743,266.164642 479.692657,260.082581 
	C476.907288,262.457153 476.014618,265.628937 474.190369,268.164734 
	C472.221039,270.902130 470.153870,274.069672 467.273407,275.249146 
	C456.584320,279.626099 455.869080,288.050354 457.131226,297.592651 
	C457.174561,297.920166 457.137543,298.258514 457.135590,298.591797 
	C457.026917,317.018616 448.680237,325.394684 430.276123,325.333221 
	C426.819153,325.321686 423.985504,326.046600 421.096893,328.208466 
	C409.948242,336.552490 394.153229,330.161499 391.655182,316.505585 
	C389.998108,307.447113 394.641693,298.975006 403.306763,295.670654 
	C410.524597,292.918121 421.127228,294.702240 425.361633,304.034973 
	C427.628296,309.030792 432.329498,306.894653 436.010925,306.699188 
	C439.554321,306.511108 439.586365,303.256989 439.537170,300.556915 
	C439.470428,296.896271 439.012878,293.236542 439.068481,289.581665 
	C439.118347,286.303802 438.268341,284.181549 434.637726,283.710052 
	C433.004333,283.497894 431.562134,282.506714 430.493958,281.109161 
	C428.416138,278.390686 427.600800,275.364594 429.024658,272.208282 
	C430.660187,268.582672 433.859680,267.221008 437.674347,267.652161 
	C450.298248,269.078949 458.484070,262.418396 465.002777,252.763535 
	C471.354584,243.355896 473.986023,232.915253 473.817017,221.583710 
	C473.494507,199.963470 462.172424,185.346252 441.243652,180.189880 
	C437.997375,179.390076 436.400269,178.022125 436.610443,174.435532 
	C437.036255,167.170135 434.943359,160.322037 432.816772,153.451843 
	C431.404327,148.888885 428.917114,147.224335 424.090515,147.308884 
	C399.774323,147.734863 375.456940,148.355301 351.130646,147.487167 
	C341.987213,147.160858 339.234039,150.114594 339.220886,159.380936 
	C339.186096,183.878143 339.334076,208.376038 339.189453,232.872360 
	C339.156189,238.506607 339.889587,243.140106 343.980225,247.790726 
	C350.668854,255.394943 348.749634,266.429413 340.830719,272.522858 
	C332.687531,278.788879 322.091888,277.928223 315.664612,270.478699 
	C309.124817,262.898773 309.386993,251.442795 316.915924,245.432831 
	C320.699219,242.412827 321.801636,239.161911 321.622375,234.706375 
	C320.570862,208.572632 321.808838,182.436600 321.684753,156.300507 
	C321.674561,154.149521 321.729767,151.941757 322.185059,149.854279 
	C324.949829,137.177872 335.430023,129.124237 349.653168,129.022705 
	C369.150146,128.883514 388.648956,129.014954 408.146851,128.971924 
	C410.408783,128.966919 412.805237,129.434708 415.280090,127.745270 
	C414.085785,123.114815 410.878479,119.680649 407.936829,116.204384 
	C398.532074,105.090401 386.847565,99.085258 371.934357,101.145966 
	C368.481537,101.623070 367.744415,99.601761 366.866425,97.086853 
	C360.132507,77.798836 339.950653,66.080826 319.661896,69.607674 
	C299.902283,73.042542 286.357300,89.569679 286.353363,110.454231 
	C286.331482,226.275803 286.351837,342.097382 286.325867,457.918945 
	C286.323914,466.684631 288.805054,474.683350 293.500183,481.967163 
	C295.878235,485.656372 298.621918,489.167633 303.649323,491.377686 
	C303.649323,481.947205 303.588165,473.166809 303.685120,464.388153 
	C303.715759,461.612518 303.009125,459.375732 301.375610,457.022339 
	C297.097137,450.858276 296.785431,444.251404 300.918182,437.848053 
	C302.348511,435.631927 303.088135,433.463287 303.115265,430.875427 
	C303.223389,420.547974 303.527069,410.221710 303.553497,399.894470 
	C303.632812,368.897797 303.584473,337.900787 303.655212,306.904053 
	C303.677002,297.345886 309.284607,291.764526 318.913605,291.658966 
	C328.578003,291.552979 338.251434,291.404602 347.906830,291.713989 
	C352.672668,291.866760 356.105072,290.261017 359.317413,286.888336 
	C366.211365,279.650299 373.070068,272.322723 380.548706,265.717316 
	C385.475220,261.366089 387.065735,256.708893 386.073059,250.473312 
	C385.629272,247.685776 384.886719,246.099854 381.836639,246.304520 
	C380.344116,246.404663 378.838013,246.322052 377.338501,246.295013 
	C366.965851,246.107941 361.801300,240.888153 361.748199,230.398941 
	C361.699249,220.733566 361.745209,211.067612 361.773376,201.401978 
	C361.801086,191.903473 361.633636,182.396851 361.980103,172.909424 
	C362.225708,166.184097 364.958344,163.632492 370.604370,163.671021 
	C376.217194,163.709320 379.086578,166.335846 379.462494,172.788605 
	C380.373749,188.430664 380.206390,204.086121 379.443054,219.738129 
	C379.119873,226.364746 379.219025,226.369598 385.663208,226.773560 
	C396.427826,227.448349 402.315826,232.503769 403.586273,243.214722 
	C404.327515,249.464020 403.834930,255.852005 404.084686,262.170227 
	C404.227753,265.790131 403.006378,268.727295 400.373047,271.054535 
	C388.740448,281.334839 378.524017,293.022705 367.571136,303.977814 
	C363.955719,307.593994 359.769348,309.395660 354.598358,309.314392 
	C345.101471,309.165192 335.599091,309.352539 326.102875,309.182373 
	C322.564941,309.118988 320.887360,310.158813 320.968536,313.971893 
	C321.167084,323.300781 321.231201,332.636780 321.100494,341.966400 
	C321.047180,345.774475 322.649963,346.823486 326.204681,346.740753 
	C334.199585,346.554718 342.206512,346.512817 350.198792,346.746368 
	C354.062317,346.859314 356.614655,346.142151 357.147064,341.745544 
	C357.403931,339.624451 358.592773,337.709808 360.075256,336.041443 
	C364.827301,330.693573 370.602783,327.859894 377.817017,329.288177 
	C386.413452,330.990082 391.298431,336.747345 393.598663,344.880280 
	C395.580933,351.889038 391.661682,360.047424 384.275360,364.726410 
	C377.655731,368.919800 369.822418,368.797180 364.346863,363.975098 
	C361.991058,361.900421 360.185577,361.011383 357.612305,363.399414 
	C355.680176,365.192413 353.196869,365.482483 350.604401,365.444855 
	C342.940338,365.333618 335.274597,365.325287 327.609436,365.311005 
	C321.346588,365.299347 320.940277,365.614349 320.955811,371.656586 
	C321.002045,389.654510 321.186646,407.652222 321.178772,425.649933 
	C321.177429,428.696564 322.215820,430.397430 324.954468,431.884521 
	C336.138306,437.957397 337.892365,453.917969 327.288574,460.989288 
	C321.334167,464.960052 320.759521,469.237976 321.060944,474.987671 
	C321.209045,477.812653 321.076202,480.652313 321.070587,484.478699 
M190.509857,280.990082 
	C191.921860,282.404053 193.459198,283.714966 194.722610,285.251129 
	C198.685501,290.069580 203.378311,292.211975 209.917450,291.749664 
	C219.030609,291.105316 228.220520,290.517059 237.376587,291.364685 
	C247.378571,292.290680 252.248947,297.660278 252.319656,307.714905 
	C252.404037,319.713745 252.217010,331.717957 252.506989,343.711151 
	C253.159500,370.698029 253.263260,397.679504 252.456284,424.662903 
	C252.312088,429.485382 252.508072,433.973450 255.184662,438.518890 
	C258.773254,444.613068 258.445801,451.273193 254.549850,457.489838 
	C253.760803,458.748901 252.581100,460.113190 252.557709,461.446075 
	C252.387039,471.169098 252.465820,480.896454 252.465820,490.763763 
	C255.085892,490.305023 256.295410,488.870331 257.582275,487.611359 
	C265.929413,479.445190 269.387756,469.205292 269.566833,457.832458 
	C269.787018,443.848114 269.607239,429.857483 269.601746,415.869568 
	C269.587341,379.209167 269.336853,342.550629 269.091919,305.890930 
	C268.655426,240.562988 268.940796,175.229965 269.016235,109.899185 
	C269.026520,100.972237 267.316193,92.650795 261.883911,85.432823 
	C252.013763,72.318192 238.409088,67.547646 222.654190,69.594521 
	C206.520325,71.690636 195.059418,80.773407 189.006134,95.978523 
	C187.401276,100.009697 185.582031,101.865013 181.063629,101.274300 
	C167.038879,99.440758 156.654419,106.074692 148.055984,116.262871 
	C145.013870,119.867432 141.951614,123.581032 140.803314,128.395599 
	C143.041351,129.990479 145.267700,129.619995 147.383286,129.598877 
	C167.543472,129.397537 187.702759,129.035324 207.863235,128.956406 
	C224.438828,128.891556 234.267609,138.913757 234.364471,155.403030 
	C234.522034,182.225983 234.804306,209.048279 234.905960,235.871338 
	C234.920044,239.589233 235.727142,242.335190 238.770905,244.945572 
	C246.797394,251.829208 247.078979,262.904053 239.908905,270.689606 
	C233.431046,277.723480 221.482742,278.238342 214.607193,271.779877 
	C207.176849,264.800293 206.460693,252.823135 213.432999,245.740860 
	C215.903397,243.231491 216.764053,240.740860 216.752594,237.363190 
	C216.662766,210.864410 216.728668,184.365173 216.704575,157.866104 
	C216.697739,150.359833 213.908997,147.439316 206.555969,147.425629 
	C181.223602,147.378448 155.890686,147.488510 130.558945,147.356552 
	C126.332939,147.334549 124.141129,149.084534 122.841553,152.885498 
	C120.449638,159.881348 118.876228,166.990936 119.204544,174.419678 
	C119.376450,178.309540 117.806717,179.916611 113.762627,180.420883 
	C105.510780,181.449799 98.646370,185.606186 93.375526,191.971283 
	C79.942986,208.192459 78.480888,226.433456 87.090744,244.856339 
	C93.154716,257.831665 101.340599,269.995789 119.123779,267.263367 
	C119.436790,267.215271 119.777542,267.375916 120.108322,267.411041 
	C124.271370,267.853302 126.933723,270.083679 127.576965,274.228607 
	C128.247543,278.549500 126.411629,282.644104 122.360748,283.270203 
	C115.530792,284.325775 116.140999,288.604950 116.326912,293.284851 
	C116.452499,296.446564 116.349907,299.617035 116.367661,302.783478 
	C116.375259,304.138489 116.489700,305.440460 117.856140,306.250427 
	C120.821938,308.008362 127.817307,306.294250 129.729492,303.310822 
	C135.364014,294.519775 146.515228,291.808136 155.045166,297.154816 
	C163.696030,302.577332 166.406631,314.332825 161.003479,322.995483 
	C155.392899,331.990753 144.031509,335.011902 135.389618,328.982513 
	C131.063126,325.963989 126.845306,325.223450 121.909492,325.258972 
	C108.214752,325.357513 98.851006,315.884033 98.715218,302.079102 
	C98.664406,296.912994 98.441391,291.731598 98.753159,286.584778 
	C98.968071,283.036713 97.625839,280.965607 94.567215,279.544556 
	C87.969986,276.479401 83.503670,271.155670 79.542206,265.272247 
	C78.601158,263.874634 78.281982,261.793915 76.174606,261.365173 
	C69.035561,272.465668 70.506813,295.135834 78.913345,304.936432 
	C80.236534,306.479034 81.758682,307.775146 83.613686,308.584503 
	C85.476387,309.397156 86.184013,310.597321 86.471146,312.725464 
	C89.064537,331.946838 103.646255,344.669586 122.829262,344.671875 
	C124.995850,344.672150 127.163422,344.633850 129.328842,344.685242 
	C135.350174,344.828125 139.838348,348.680176 139.940765,353.748993 
	C140.048325,359.070618 136.090546,362.680695 129.683365,362.927856 
	C117.453766,363.399597 105.248260,363.672760 94.861282,354.236664 
	C91.163109,364.345245 90.348602,373.716888 92.907784,383.309723 
	C98.800537,405.398193 119.092842,424.693848 147.747375,421.052887 
	C150.876953,420.655243 152.481735,421.548218 152.370987,424.991211 
	C152.231781,429.319427 152.271835,433.658691 152.389526,437.988983 
	C152.948776,458.566437 167.994629,476.034882 187.962631,480.052429 
	C192.700974,481.005798 197.177475,479.459045 201.721771,479.876068 
	C202.213196,483.883942 202.178528,484.068085 204.005997,485.911896 
	C211.251938,493.222931 219.825531,497.337708 230.352081,497.014069 
	C233.576584,496.914917 234.761002,495.698792 234.694748,492.500549 
	C234.549774,485.503876 234.429276,478.491730 234.744827,471.506042 
	C234.937302,467.245544 233.695709,464.669739 229.926361,462.213989 
	C219.460052,455.395172 218.532150,439.794891 228.350937,433.432526 
	C232.965256,430.442535 234.736588,427.256226 234.142395,422.141724 
	C233.971924,420.674347 234.329559,419.153229 234.339096,417.656097 
	C234.439896,401.827454 234.517349,385.998688 234.606079,370.169952 
	C234.625793,366.652039 233.055313,365.116028 229.386078,365.239746 
	C223.226547,365.447357 217.054855,365.333679 210.888672,365.293060 
	C204.975189,365.254120 198.791336,366.469177 194.146576,361.584930 
	C191.824158,363.038818 189.932938,364.414581 187.877579,365.471039 
	C183.019775,367.967987 177.920456,368.287720 172.929352,366.067169 
	C164.760468,362.432739 160.084885,353.455261 161.572083,344.788635 
	C163.118103,335.779175 169.585876,329.628143 178.327606,328.853699 
	C186.517715,328.128113 194.440414,333.655640 197.485321,342.604645 
	C198.489639,345.556305 199.818268,346.876404 203.103699,346.797424 
	C211.931625,346.585205 220.772293,346.563110 229.599121,346.797150 
	C233.676987,346.905273 234.772629,345.202942 234.706619,341.458313 
	C234.548050,332.461487 234.470795,323.453949 234.749115,314.462738 
	C234.883102,310.134277 233.172272,309.100342 229.177246,309.196472 
	C219.349762,309.432922 209.509003,309.122498 199.681763,309.364075 
	C194.770142,309.484802 191.046127,307.708862 187.727783,304.287842 
	C176.707718,292.926880 165.589661,281.661011 154.550049,270.318909 
	C153.524185,269.264954 152.066040,267.949280 152.031830,266.721039 
	C151.768692,257.274109 150.145828,247.654800 152.840347,238.431335 
	C155.246109,230.196259 161.791534,226.673874 170.154465,226.955597 
	C174.525772,227.102859 175.953003,225.551636 175.883484,221.179733 
	C175.655624,206.850433 175.779388,192.515350 175.793259,178.182541 
	C175.795181,176.186096 175.773056,174.166718 176.047043,172.197617 
	C176.964050,165.607452 179.859299,163.166428 185.941055,163.656540 
	C190.997467,164.064026 193.334824,167.119934 193.341476,173.479233 
	C193.359787,190.978638 193.347382,208.478058 193.347824,225.977478 
	C193.348267,243.017578 191.051468,245.415314 173.948395,246.262573 
	C172.321976,246.343140 170.565918,246.076035 169.610092,247.982361 
	C168.042847,251.108047 169.636734,260.397034 172.212921,262.938751 
	C178.144028,268.790466 184.068085,274.649323 190.509857,280.990082 
z"/>
<path fill="#b45309" opacity="1.000000" stroke="none" 
	d="
M403.638123,372.702087 
	C410.619781,365.979218 418.150330,364.776489 425.686584,368.919067 
	C432.929535,372.900513 436.983337,380.685913 435.610779,387.978668 
	C433.998627,396.544312 427.333191,402.942200 418.572693,403.822174 
	C413.598999,404.321747 408.982117,402.846527 405.242126,399.375854 
	C403.147125,397.431702 400.934723,396.798981 398.026031,396.942322 
	C392.212830,397.228882 386.370911,396.864685 380.544067,396.961609 
	C373.808990,397.073578 369.430084,401.578552 369.315735,408.338745 
	C369.259430,411.668762 369.507202,415.011505 369.307434,418.329865 
	C368.919495,424.773895 369.610504,430.066833 375.293060,434.992889 
	C382.497009,441.237823 381.427826,452.383820 374.544281,459.076477 
	C367.063354,466.349945 355.857910,466.581879 348.400726,459.617615 
	C341.181244,452.875275 340.433502,441.873169 347.451019,434.539703 
	C350.806671,431.032990 351.918823,427.550842 351.707977,422.993103 
	C351.454254,417.508331 351.621765,412.002594 351.656769,406.506256 
	C351.717224,397.008026 361.412598,382.754272 370.267975,379.331085 
	C371.760864,378.753998 373.515533,378.699097 375.152740,378.678253 
	C380.981476,378.603912 386.828674,378.373444 392.636230,378.731750 
	C397.614655,379.038910 401.487427,378.047180 403.638123,372.702087 
z"/>
<path fill="#b45309" opacity="1.000000" stroke="none" 
	d="
M427.904266,238.253967 
	C421.940948,232.997452 419.179443,226.926849 421.267426,219.327469 
	C421.918396,216.958237 420.837189,215.463409 419.430847,214.015320 
	C415.140533,209.597549 410.752472,205.274078 406.493378,200.826828 
	C405.054016,199.323898 403.215912,199.413681 401.462708,199.009857 
	C390.605621,196.509171 384.374268,185.449219 387.736816,174.684875 
	C390.821838,164.809082 401.948456,159.892761 412.102692,163.918854 
	C419.546631,166.870316 424.703796,176.086594 422.476044,183.868423 
	C421.137329,188.544571 421.843018,191.807388 425.601379,194.739624 
	C427.289642,196.056778 428.769806,197.717255 430.082397,199.423508 
	C432.890381,203.073563 436.211365,204.690536 441.070740,204.897934 
	C448.784088,205.227127 453.914246,210.030243 456.372986,217.267334 
	C458.932678,224.801529 456.971191,231.392502 451.166382,236.753204 
	C445.477631,242.006699 438.863739,242.943192 431.690186,240.394104 
	C430.456512,239.955719 429.361389,239.127472 427.904266,238.253967 
z"/>
<path fill="#b45309" opacity="1.000000" stroke="none" 
	d="
M303.514374,197.178436 
	C302.258728,195.068268 301.875610,193.117630 301.901917,191.095123 
	C302.068756,178.284363 302.360016,165.474274 302.407806,152.663208 
	C302.445618,142.518082 302.008728,132.369934 302.115845,122.226631 
	C302.262543,108.332451 309.101654,98.486725 320.923645,95.461510 
	C327.204437,93.854279 333.781647,93.602211 340.244843,94.205940 
	C346.067841,94.749878 349.789917,99.630066 349.370209,105.307632 
	C348.992859,110.411964 345.579071,113.067558 339.176117,113.166718 
	C335.848114,113.218262 332.518097,113.139130 329.190216,113.194412 
	C322.993500,113.297356 320.376007,115.709969 320.276855,121.975258 
	C320.060883,135.619019 320.097809,149.266556 319.936371,162.911438 
	C319.826172,172.225739 319.469788,181.537445 319.396729,190.851685 
	C319.365631,194.815613 318.491333,198.201385 314.606384,199.925934 
	C310.478821,201.758209 306.819855,200.795959 303.514374,197.178436 
z"/>
<path fill="#b45309" opacity="1.000000" stroke="none" 
	d="
M132.680084,402.734192 
	C124.908249,399.280029 119.930748,393.967194 119.769028,385.552155 
	C119.617523,377.669464 123.611374,371.962006 130.638733,368.446777 
	C138.734253,364.397308 147.957306,366.538361 153.125092,374.146606 
	C155.475113,377.606415 158.061768,378.989563 162.169800,378.713837 
	C166.976364,378.391296 171.821671,378.645935 176.650162,378.650299 
	C189.478531,378.661926 203.111588,392.066010 203.385910,405.021118 
	C203.516312,411.178986 203.747681,417.353455 203.440781,423.495819 
	C203.208359,428.147339 204.585373,431.561249 207.849304,434.993927 
	C214.275543,441.752563 213.860779,451.617554 207.534698,458.481812 
	C200.685242,465.914062 190.879288,466.872955 182.790024,460.901581 
	C175.594849,455.590149 173.230347,445.308929 177.572647,437.713684 
	C178.465408,436.152161 179.525162,434.282135 181.003601,433.534698 
	C185.531250,431.245697 186.044800,427.564117 185.785370,423.137909 
	C185.522766,418.657623 185.762436,414.149780 185.708328,409.654907 
	C185.611511,401.609650 181.027283,397.005829 173.061081,396.923004 
	C169.898010,396.890106 166.733948,396.957275 163.570724,396.931610 
	C157.813950,396.884949 152.323700,396.542847 147.400970,401.154541 
	C143.572327,404.741272 138.047607,403.911255 132.680084,402.734192 
z"/>
<path fill="#b45309" opacity="1.000000" stroke="none" 
	d="
M134.006073,216.080627 
	C134.266525,222.477798 135.331024,228.511597 131.075058,234.027191 
	C125.785736,240.882034 118.207970,243.479004 110.311493,240.502777 
	C102.886497,237.704254 97.150375,229.024750 97.917358,221.748856 
	C98.887535,212.545395 104.937134,205.177765 113.518684,205.038391 
	C119.536003,204.940674 123.038803,202.221237 126.515785,198.303802 
	C127.949402,196.688568 129.410492,195.048050 131.093460,193.714890 
	C133.959122,191.444855 134.362091,188.966873 133.353271,185.447937 
	C130.889679,176.854553 134.223785,168.716049 141.282684,164.801804 
	C148.723846,160.675598 157.717407,161.778717 163.263977,167.868256 
	C168.242447,173.334091 169.566544,179.825912 167.267426,186.895676 
	C165.143936,193.425339 160.622894,197.735870 153.962250,199.065628 
	C150.950699,199.666824 148.777237,200.844604 146.768585,202.938644 
	C142.623825,207.259583 138.389801,211.494888 134.006073,216.080627 
z"/>
<path fill="#b45309" opacity="1.000000" stroke="none" 
	d="
M235.961151,192.449860 
	C235.867874,169.187363 235.806961,146.368988 235.704849,123.550797 
	C235.670410,115.854935 232.924103,113.245102 225.120514,113.199905 
	C221.292801,113.177734 217.424149,113.369286 213.649353,112.881371 
	C209.365997,112.327721 206.116867,110.088181 205.747406,105.268097 
	C205.391754,100.627975 207.268738,97.106094 211.575455,95.206848 
	C222.148300,90.544304 241.124771,95.367149 248.133469,104.294037 
	C251.686584,108.819603 253.282440,113.982895 253.303467,119.597908 
	C253.392685,143.416458 253.396576,167.235474 253.373215,191.054245 
	C253.367142,197.252365 251.025299,200.009979 245.585892,200.641525 
	C240.330475,201.251709 237.528671,198.992584 235.961151,192.449860 
z"/>
</svg>