<svg version="1.1" id="Layer_1" xmlns="http://www.w3.org/2000/svg" xmlns:xlink="http://www.w3.org/1999/xlink" x="0px" y="0px"
	 width="100%" viewBox="0 0 152 136" enable-background="new 0 0 152 136" xml:space="preserve">
<path fill="#174D86" opacity="1.000000" stroke="none" 
	d="
M53.954933,96.156784 
	C53.673580,94.589516 52.625042,92.590996 53.226955,91.520241 
	C61.147133,77.430862 69.300011,63.472286 77.717499,49.474945 
	C78.040405,49.468956 78.127106,49.935871 78.122040,50.305145 
	C82.578300,59.374531 86.924202,68.136520 91.542427,76.752533 
	C94.513367,82.295288 97.884636,87.623451 101.076469,93.047798 
	C101.076469,93.047798 100.960953,93.499550 100.421371,93.731140 
	C85.915703,93.963425 71.948936,93.904160 57.984589,94.060432 
	C56.633720,94.075554 55.297798,95.426132 53.954933,96.156784 
z"/>
<path fill="#1A5FA0" opacity="1.000000" stroke="none" 
	d="
M101.362595,92.862808 
	C97.884636,87.623451 94.513367,82.295288 91.542427,76.752533 
	C86.924202,68.136520 82.578300,59.374531 78.578033,50.343311 
	C94.570976,50.130402 110.102875,50.248596 125.634766,50.366791 
	C121.495880,57.906906 117.432014,65.489479 113.195648,72.974426 
	C109.446419,79.598686 105.505180,86.114265 101.362595,92.862808 
z"/>
<path fill="#1C4473" opacity="1.000000" stroke="none" 
	d="
M54.012306,96.503471 
	C55.297798,95.426132 56.633720,94.075554 57.984589,94.060432 
	C71.948936,93.904160 85.915703,93.963425 100.335899,93.948044 
	C94.227776,105.407623 87.781288,116.950317 81.054535,128.327316 
	C77.683998,134.027924 76.005814,134.181381 72.582741,128.640701 
	C66.139725,118.211899 60.211777,107.464882 54.012306,96.503471 
z"/>
<path fill="#58A5D5" opacity="1.000000" stroke="none" 
	d="
M100.466141,11.022530 
	C101.681488,10.689967 102.895378,10.074704 104.112404,10.068432 
	C116.735886,10.003370 129.360123,9.991275 141.983566,10.065333 
	C146.751785,10.093307 148.251953,12.315242 145.938965,16.299160 
	C139.468750,27.443533 132.766418,38.453136 125.654434,49.440994 
	C121.831322,44.014935 118.587303,38.613483 115.168854,33.324780 
	C110.335487,25.847042 105.373276,18.452585 100.466141,11.022530 
z"/>
<path fill="#2F87C7" opacity="1.000000" stroke="none" 
	d="
M100.253326,11.244028 
	C105.373276,18.452585 110.335487,25.847042 115.168854,33.324780 
	C118.587303,38.613483 121.831322,44.014935 125.412170,49.699635 
	C125.671150,50.033211 125.769600,50.213734 125.702179,50.290260 
	C110.102875,50.248596 94.570976,50.130402 78.583099,49.974037 
	C78.127106,49.935871 78.040405,49.468956 77.958954,49.247032 
	C85.265175,36.505245 92.652847,23.985384 100.253326,11.244028 
z"/>
<path fill="#AE61A5" opacity="1.000000" stroke="none" 
	d="
M49.692059,10.861237 
	C52.419331,10.584982 55.144138,10.103034 57.874325,10.070391 
	C66.659546,9.965351 75.446747,10.024240 84.233185,10.023438 
	C91.509949,10.022775 92.640282,11.737518 88.992371,18.237690 
	C83.264259,28.444571 77.241402,38.486042 70.909927,48.959465 
	C70.058357,49.530949 69.640228,49.740524 69.116005,49.600975 
	C62.570625,36.454975 56.131340,23.658106 49.692059,10.861237 
z"/>
<path fill="#642D8D" opacity="1.000000" stroke="none" 
	d="
M69.222099,49.950104 
	C69.640228,49.740524 70.058357,49.530949 70.693550,49.244629 
	C64.800690,59.927860 58.759552,70.727768 52.546619,81.427925 
	C50.098454,85.644249 46.598179,86.094849 44.481846,82.387184 
	C38.510208,71.925323 32.845829,61.288090 27.569862,50.360462 
	C41.793610,49.984005 55.507854,49.967056 69.222099,49.950104 
z"/>
<path fill="#8F268D" opacity="1.000000" stroke="none" 
	d="
M69.116005,49.600975 
	C55.507854,49.967056 41.793610,49.984005 27.621504,49.995708 
	C30.202978,44.351852 33.152321,38.662376 36.303860,33.087200 
	C40.476250,25.706112 44.806805,18.414434 49.380722,10.972783 
	C56.131340,23.658106 62.570625,36.454975 69.116005,49.600975 
z"/>
<path fill="#E86850" opacity="1.000000" stroke="none" 
	d="
M15.864767,31.049147 
	C13.337843,26.778959 10.713759,22.967533 8.688111,18.860924 
	C7.590224,16.635168 7.112785,13.881676 7.264780,11.422442 
	C7.301179,10.833500 10.955525,10.111152 12.960032,10.065131 
	C20.116934,9.900820 27.280394,9.949867 34.440434,10.017544 
	C40.165573,10.071658 41.358471,11.970402 38.606941,17.019539 
	C34.834011,23.942966 30.852467,30.754175 26.882385,37.568066 
	C24.948801,40.886700 21.600937,40.768211 19.505600,37.372463 
	C18.292999,35.407291 17.176628,33.382744 15.864767,31.049147 
z"/>
</svg>